<svg width="92" height="58" viewBox="0 0 92 58" fill="none" xmlns="http://www.w3.org/2000/svg">
<path opacity="0.07" d="M84.7368 0H7.26316C3.14737 0 0 3.14167 0 7.25V50.75C0 54.8583 3.38947 58 7.26316 58H84.7368C88.8526 58 92 54.8583 92 50.75V7.25C92 3.14167 88.6105 0 84.7368 0Z" fill="black"/>
<path d="M84.7368 2.41666C87.4 2.41666 89.5789 4.59166 89.5789 7.24999V50.75C89.5789 53.4083 87.4 55.5833 84.7368 55.5833H7.26316C4.6 55.5833 2.42105 53.4083 2.42105 50.75V7.24999C2.42105 4.59166 4.6 2.41666 7.26316 2.41666H84.7368Z" fill="white"/>
<path d="M68.5158 24.4083H67.7895C66.8211 26.825 66.0947 28.0333 65.3684 31.6583H69.9684C69.2421 28.0333 69.2421 26.3417 68.5158 24.4083ZM75.5368 38.6667H71.4211C71.1789 38.6667 71.1789 38.6667 70.9368 38.425L70.4526 36.25L70.2105 35.7667H64.4C64.1579 35.7667 63.9158 35.7667 63.9158 36.25L63.1895 38.425C63.1895 38.6667 62.9474 38.6667 62.9474 38.6667H57.8632L58.3474 37.4583L65.3684 21.025C65.3684 19.8167 66.0947 19.3333 67.3053 19.3333H70.9368C71.1789 19.3333 71.4211 19.3333 71.4211 19.8167L74.8105 35.525C75.0526 36.4917 75.2947 37.2167 75.2947 38.1833C75.5368 38.425 75.5368 38.425 75.5368 38.6667ZM43.0947 37.9417L44.0632 33.5917C44.3053 33.5917 44.5474 33.8333 44.5474 33.8333C46.2421 34.5583 47.9368 35.0417 49.6316 34.8C50.1158 34.8 50.8421 34.5583 51.3263 34.3167C52.5368 33.8333 52.5368 32.625 51.5684 31.6583C51.0842 31.175 50.3579 30.9333 49.6316 30.45C48.6632 29.9667 47.6947 29.4833 46.9684 28.7583C44.0632 26.3417 45.0316 22.9583 46.7263 21.2667C48.1789 20.3 48.9053 19.3333 50.8421 19.3333C53.7474 19.3333 56.8947 19.3333 58.3474 19.8167H58.5895C58.3474 21.2667 58.1053 22.475 57.6211 23.925C56.4105 23.4417 55.2 22.9583 53.9895 22.9583C53.2632 22.9583 52.5368 22.9583 51.8105 23.2C51.3263 23.2 51.0842 23.4417 50.8421 23.6833C50.3579 24.1667 50.3579 24.8917 50.8421 25.375L52.0526 26.3417C53.0211 26.825 53.9895 27.3083 54.7158 27.7917C55.9263 28.5167 57.1368 29.725 57.3789 31.175C57.8632 33.35 57.1368 35.2833 55.2 36.7333C53.9895 37.7 53.5053 38.1833 51.8105 38.1833C48.4211 38.1833 45.7579 38.425 43.5789 37.7C43.3368 38.1833 43.3368 38.1833 43.0947 37.9417ZM34.6211 38.6667C34.8632 36.975 34.8632 36.975 35.1053 36.25C36.3158 30.9333 37.5263 25.375 38.4947 20.0583C38.7368 19.575 38.7368 19.3333 39.2211 19.3333H43.5789C43.0947 22.2333 42.6105 24.4083 41.8842 27.0667C41.1579 30.6917 40.4316 34.3167 39.4632 37.9417C39.4632 38.425 39.2211 38.425 38.7368 38.425M12.1053 19.8167C12.1053 19.575 12.5895 19.3333 12.8316 19.3333H21.0632C22.2737 19.3333 23.2421 20.0583 23.4842 21.2667L25.6632 31.9C25.6632 32.1417 25.6632 32.1417 25.9053 32.3833C25.9053 32.1417 26.1474 32.1417 26.1474 32.1417L31.2316 19.8167C30.9895 19.575 31.2316 19.3333 31.4737 19.3333H36.5579C36.5579 19.575 36.5579 19.575 36.3158 19.8167L28.8105 37.4583C28.5684 37.9417 28.5684 38.1833 28.3263 38.425C28.0842 38.6667 27.6 38.425 27.1158 38.425H23.4842C23.2421 38.425 23 38.425 23 37.9417L19.1263 22.9583C18.6421 22.475 17.9158 21.75 16.9474 21.5083C15.4947 20.7833 12.8316 20.3 12.3474 20.3L12.1053 19.8167Z" fill="#142688"/>
</svg>
