<svg width="92" height="58" viewBox="0 0 92 58" fill="none" xmlns="http://www.w3.org/2000/svg">
<path opacity="0.07" d="M84.7368 0H7.26316C3.14737 0 0 3.14167 0 7.25V50.75C0 54.8583 3.38947 58 7.26316 58H84.7368C88.8526 58 92 54.8583 92 50.75V7.25C92 3.14167 88.6105 0 84.7368 0Z" fill="black"/>
<path d="M86.8892 0C89.7 0 92 2.37317 92 5.27317V52.7268C92 55.6268 89.7 58 86.8892 58H5.10842C2.3 58 0 55.6268 0 52.7268V5.27317C0 2.37317 2.3 0 5.11084 0H86.8892Z" fill="#5A31F4"/>
<path d="M22.6345 27.4727C20.1723 26.9338 19.0755 26.7235 19.0755 25.7689C19.0755 24.8699 19.8164 24.4204 21.3029 24.4204C22.6103 24.4204 23.5642 24.9956 24.2687 26.1218C24.2935 26.1636 24.3334 26.1943 24.3802 26.2078C24.427 26.2213 24.4772 26.2164 24.5205 26.1943L27.295 24.7829C27.3186 24.7703 27.3395 24.7531 27.3563 24.7323C27.373 24.7114 27.3854 24.6874 27.3926 24.6617C27.3999 24.6359 27.4018 24.609 27.3984 24.5825C27.3949 24.556 27.3861 24.5304 27.3725 24.5074C26.2225 22.4992 24.0968 21.3996 21.2957 21.3996C17.6157 21.3996 15.3302 23.2242 15.3302 26.1266C15.3302 29.2078 18.1144 29.986 20.5839 30.5249C23.0533 31.0614 24.1525 31.2741 24.1525 32.2287C24.1525 33.1857 23.3487 33.6352 21.7484 33.6352C20.2667 33.6352 19.17 32.9537 18.5042 31.6293C18.4809 31.584 18.4406 31.5497 18.3921 31.5339C18.3436 31.518 18.2908 31.5219 18.2451 31.5448L15.4779 32.9223C15.4309 32.9465 15.3954 32.9883 15.3791 33.0385C15.3628 33.0887 15.3669 33.1433 15.3907 33.1905C16.4899 35.4138 18.7414 36.6632 21.7508 36.6632C25.5833 36.6632 27.8979 34.8701 27.8979 31.8783C27.8979 28.8864 25.1015 28.0164 22.6369 27.4799L22.6345 27.4727ZM37.4998 21.3996C35.9261 21.3996 34.5364 21.9603 33.5389 22.9608C33.5252 22.9752 33.5074 22.9851 33.4879 22.9891C33.4684 22.9931 33.4482 22.991 33.4299 22.983C33.4116 22.9751 33.3963 22.9617 33.3859 22.9448C33.3755 22.9278 33.3706 22.9081 33.3719 22.8882V16.5082C33.3722 16.4827 33.3674 16.4573 33.3578 16.4335C33.3482 16.4098 33.334 16.3882 33.316 16.37C33.298 16.3518 33.2765 16.3373 33.2529 16.3274C33.2292 16.3176 33.2038 16.3125 33.1782 16.3125H29.704C29.6781 16.3125 29.6525 16.3176 29.6287 16.3277C29.6049 16.3377 29.5833 16.3524 29.5653 16.3708C29.5472 16.3893 29.5331 16.4112 29.5236 16.4352C29.5142 16.4592 29.5096 16.4849 29.5103 16.5107V36.3128C29.5096 36.3386 29.5142 36.3643 29.5236 36.3883C29.5331 36.4123 29.5472 36.4342 29.5653 36.4527C29.5833 36.4711 29.6049 36.4858 29.6287 36.4958C29.6525 36.5059 29.6781 36.511 29.704 36.511H33.1733C33.1994 36.5113 33.2252 36.5064 33.2493 36.4965C33.2734 36.4867 33.2953 36.472 33.3136 36.4535C33.3319 36.435 33.3463 36.413 33.3559 36.3889C33.3655 36.3647 33.3701 36.3388 33.3694 36.3128V27.6273C33.3694 25.9478 34.6478 24.6621 36.3691 24.6621C38.0881 24.6621 39.3373 25.9212 39.3373 27.6273V36.3128C39.3367 36.3388 39.3413 36.3647 39.3509 36.3889C39.3605 36.413 39.3749 36.435 39.3932 36.4535C39.4115 36.472 39.4333 36.4867 39.4574 36.4965C39.4815 36.5064 39.5074 36.5113 39.5334 36.511H43.0028C43.0289 36.5113 43.0547 36.5064 43.0788 36.4965C43.1029 36.4867 43.1248 36.472 43.1431 36.4535C43.1614 36.435 43.1758 36.413 43.1854 36.3889C43.195 36.3647 43.1996 36.3388 43.1989 36.3128V27.6273C43.1989 23.9782 40.8263 21.3996 37.4998 21.3996ZM50.2418 20.8317C48.3582 20.8317 46.5932 21.4117 45.327 22.2527C45.2846 22.28 45.2542 22.3225 45.2421 22.3715C45.2299 22.4204 45.2369 22.4721 45.2617 22.5161L46.7918 25.1454C46.8043 25.1678 46.8212 25.1874 46.8415 25.2032C46.8617 25.219 46.8849 25.2306 46.9097 25.2373C46.9345 25.2441 46.9604 25.2458 46.9858 25.2425C47.0113 25.2392 47.0359 25.2308 47.0581 25.2179C48.0187 24.6327 49.1237 24.3264 50.249 24.3334C53.2753 24.3334 55.5027 26.4867 55.5027 29.3311C55.5027 31.755 53.7208 33.5482 51.462 33.5482C49.622 33.5482 48.3437 32.4703 48.3437 30.9454C48.3437 30.073 48.7117 29.3577 49.6704 28.8526C49.6942 28.8405 49.7152 28.8236 49.7322 28.803C49.7491 28.7825 49.7617 28.7586 49.7689 28.7329C49.7762 28.7073 49.7781 28.6804 49.7745 28.654C49.7708 28.6276 49.7618 28.6022 49.7479 28.5795L48.3049 26.1193C48.282 26.0793 48.2455 26.0488 48.202 26.0333C48.1584 26.0178 48.1108 26.0183 48.0677 26.0347C46.1332 26.7573 44.7774 28.4949 44.7774 30.8294C44.7774 34.3577 47.5665 36.9919 51.4596 36.9919C56.0039 36.9919 59.2723 33.8188 59.2723 29.2707C59.2723 24.3938 55.4712 20.8317 50.2418 20.8317ZM69.4213 21.3706C67.6685 21.3706 66.0972 22.0231 64.9545 23.1734C64.8916 23.2387 64.7874 23.1903 64.7874 23.1033V21.721C64.7881 21.6952 64.7836 21.6695 64.7741 21.6455C64.7647 21.6215 64.7505 21.5996 64.7325 21.5812C64.7144 21.5627 64.6928 21.548 64.669 21.538C64.6452 21.528 64.6196 21.5228 64.5938 21.5228H61.2116C61.1857 21.5228 61.1601 21.528 61.1363 21.538C61.1125 21.548 61.0909 21.5627 61.0729 21.5812C61.0548 21.5996 61.0406 21.6215 61.0312 21.6455C61.0217 21.6695 61.0172 21.6952 61.0179 21.721V41.4942C61.0175 41.5198 61.0223 41.5452 61.0319 41.5689C61.0415 41.5926 61.0557 41.6142 61.0737 41.6324C61.0918 41.6507 61.1132 41.6651 61.1369 41.675C61.1605 41.6848 61.1859 41.6899 61.2116 41.6899H64.6809C64.7068 41.6902 64.7324 41.6854 64.7563 41.6757C64.7803 41.666 64.802 41.6516 64.8203 41.6333C64.8386 41.6151 64.853 41.5934 64.8628 41.5695C64.8725 41.5456 64.8773 41.52 64.877 41.4942V35.0103C64.877 34.9233 64.9811 34.8797 65.0441 34.9377C66.2301 36.0439 67.7983 36.65 69.4213 36.6294C73.4935 36.6294 76.6675 33.3113 76.6675 29C76.6675 24.6887 73.4887 21.3706 69.4213 21.3706ZM68.7652 33.2823C66.4507 33.2823 64.6954 31.4263 64.6954 28.9734C64.6954 26.5205 66.4459 24.6645 68.7652 24.6645C71.0846 24.6645 72.8326 26.4891 72.8326 28.9734C72.8326 31.4553 71.1088 33.2823 68.7652 33.2823Z" fill="white"/>
</svg>
